<svg xmlns="http://www.w3.org/2000/svg" xmlns:xlink="http://www.w3.org/1999/xlink" viewBox="0 0 696.77704 636.1211" height="678.529" width="743.229"><defs><linearGradient id="b"><stop offset="0" stop-color="#1c9000"/><stop offset="1" stop-color="#008ccd"/></linearGradient><linearGradient id="c"><stop offset="0" stop-color="#008ccd"/><stop offset="1" stop-color="#ff6604"/></linearGradient><linearGradient id="a"><stop offset="0" stop-color="#1a900f"/><stop offset="1" stop-color="#ff6604"/></linearGradient><linearGradient gradientUnits="userSpaceOnUse" y2="410.085" x2="223.716" y1="333.264" x1="151.269" id="d" xlink:href="#a"/><linearGradient gradientTransform="matrix(1.15697 0 0 1.15697 -48.418 -18.84)" gradientUnits="userSpaceOnUse" y2="205.813" x2="668.249" y1="120.96" x1="299.133" id="f" xlink:href="#b"/><linearGradient gradientUnits="userSpaceOnUse" y2="567.848" x2="406.141" y1="373.899" x1="450.708" id="e" xlink:href="#c"/></defs><g transform="translate(-37.082 -53.568)"><path style="line-height:normal;text-indent:0;text-align:start;text-decoration-line:none;text-decoration-style:solid;text-decoration-color:#000;text-transform:none;block-progression:tb;isolation:auto;mix-blend-mode:normal" d="M144.195 316.77c-2.87 9.85-3.523 18.53-1.68 26.248 1.844 7.72 6.364 14.042 11.778 18.44 10.827 8.798 24.418 11.643 36.633 15.077 12.214 3.435 22.763 7.312 27.95 12.725 5.185 5.413 7.98 12.675 2.694 31.125l19.227 5.51c6.403-22.348 2.828-39.714-7.48-50.473-10.31-10.76-24.382-14.6-36.977-18.14-12.596-3.542-24.006-6.935-29.436-11.346-2.715-2.206-4.14-4.23-4.935-7.565-.798-3.335-.784-8.42 1.426-16.003l-19.2-5.597z" color="#000" font-weight="400" font-family="sans-serif" white-space="normal" overflow="visible" fill="url(#d)" fill-rule="evenodd" stroke="#fff" stroke-width="2"/><path d="M75.717 54.568c-20.85 0-37.635 16.787-37.635 37.637v154.727c0 20.85 16.784 37.636 37.635 37.636h27.3c0 27.533 22.533 50.067 50.065 50.067 27.533 0 50.066-22.534 50.066-50.067h27.297c20.85 0 37.637-16.786 37.637-37.636V92.205c0-20.85-16.786-37.637-37.637-37.637H75.717zm77.365 34.272c39.95 0 73.73 16.494 74.873 36.238-1.143 19.743-34.924 36.24-74.873 36.24-39.95 0-73.73-16.494-74.875-36.24 1.145-19.744 34.924-36.238 74.875-36.238zM78.1 142.785c12.837 15.414 41.23 25.89 74.982 25.89 33.753 0 62.143-10.48 74.98-25.89v16.307c0 20.198-34.333 37.26-74.98 37.26-40.647 0-74.982-17.063-74.982-37.26v-16.307zm0 35.037c12.837 15.41 41.23 25.89 74.982 25.89 33.753 0 62.143-10.486 74.98-25.89v18.56c0 20.196-34.333 37.26-74.98 37.26-40.647 0-74.982-17.064-74.982-37.26v-18.56zm74.982 76.68c16.724 0 30.066 13.343 30.066 30.066 0 16.724-13.342 30.067-30.066 30.067-16.724 0-30.066-13.343-30.066-30.067 0-16.723 13.342-30.066 30.066-30.066z" fill="#1a900f" stroke="#fff" stroke-width="2"/><path d="M459.56 353.656c-33.006 7.018-51.022 27.246-57 50.987-5.977 23.74-2.12 50.247 2.098 75.273 4.22 25.026 8.814 48.877 7.178 64.195-.818 7.66-2.905 12.66-6.176 15.908-3.27 3.248-8.46 5.733-18.592 6.062l.65 19.99c13.455-.437 24.493-4.37 32.036-11.863 7.543-7.493 10.857-17.56 11.97-27.97 2.222-20.82-3.208-45.113-7.345-69.647-4.138-24.534-6.972-49.003-2.425-67.065 4.547-18.06 14.27-30.46 41.764-36.306l-4.16-19.564z" style="line-height:normal;text-indent:0;text-align:start;text-decoration-line:none;text-decoration-style:solid;text-decoration-color:#000;text-transform:none;block-progression:tb;isolation:auto;mix-blend-mode:normal" color="#000" font-weight="400" font-family="sans-serif" white-space="normal" overflow="visible" fill="url(#e)" fill-rule="evenodd" stroke="#fff" stroke-width="2"/><path d="M234.53 408.623c-27.53 0-50.065 22.534-50.065 50.066h-27.297c-20.85 0-37.637 16.786-37.637 37.636v154.727c0 20.85 16.787 37.636 37.638 37.636h154.727c20.85 0 37.636-16.787 37.636-37.637v-27.297c27.534 0 50.068-22.534 50.068-50.067s-22.534-50.067-50.067-50.067v-27.297c0-20.85-16.785-37.637-37.635-37.637h-27.297c0-27.533-22.534-50.067-50.067-50.067zm0 20c16.725 0 30.068 13.343 30.068 30.066s-13.343 30.066-30.067 30.066c-16.722 0-30.065-13.343-30.065-30.067s13.343-30.067 30.066-30.067zm-5.155 79.83c.913.223 2.888 3.518 5.928 9.885s5.066 10.945 6.078 13.732c2.34.33 4.078.633 5.22.912 1.14.28 2.826.812 5.052 1.598 7.802-6.68 14.613-11.787 20.436-15.322l1.11-.092c.458.112 6.556 5.835 18.298 17.172.373.454.504.91.393 1.367-.7 2.853-5.534 10.015-14.507 21.488 1.298 3.1 2.284 6.486 2.96 10.16 16.585 5.867 24.656 9.716 24.21 11.542l-5.86 23.966c-.446 1.827-9.38 1.517-26.804-.928a51.37 51.37 0 0 1-7.312 7.646c2.668 14.32 3.653 22.907 2.955 25.76-.11.456-.438.798-.978 1.03-15.905 4.7-23.97 7.022-24.198 6.966-.913-.223-2.882-3.55-5.908-9.973-3.026-6.423-5.046-11.028-6.057-13.815-2.34-.33-4.078-.633-5.22-.912-1.14-.28-2.825-.812-5.052-1.598-2.183 2.006-6.1 5.16-11.747 9.465-5.648 4.304-8.93 6.342-9.842 6.12-.227-.057-6.312-5.838-18.255-17.345-.372-.454-.504-.908-.392-1.365.697-2.853 5.533-10.017 14.506-21.49a51.367 51.367 0 0 1-2.96-10.156c-16.587-5.87-24.656-9.717-24.21-11.543l5.858-23.966c.447-1.826 9.38-1.515 26.805.93 2.293-2.947 4.73-5.496 7.312-7.647-2.668-14.32-3.652-22.907-2.955-25.76.112-.456.437-.8.977-1.03.512-.118 2.788-.77 6.828-1.96 4.04-1.19 7.88-2.307 11.523-3.35 3.642-1.046 5.58-1.54 5.807-1.484zm120.156 35.17c16.725 0 30.068 13.343 30.068 30.066s-13.343 30.066-30.067 30.066c-16.722 0-30.065-13.343-30.065-30.067s13.343-30.067 30.066-30.067zM235.76 554.227c-3.965.018-7.8 1.155-11.512 3.408-5.397 3.276-8.82 7.882-10.27 13.816-1.48 6.05-.604 11.738 2.63 17.064 3.233 5.326 7.875 8.728 13.923 10.207 6.048 1.48 11.736.6 17.062-2.632 5.326-3.234 8.728-7.875 10.207-13.924 1.45-5.935.537-11.6-2.74-16.998-3.276-5.397-7.883-8.82-13.818-10.27a22.595 22.595 0 0 0-5.484-.67z" fill="#ff6604" stroke="#fff" stroke-width="2"/><path d="M540.496 256.042c-20.85 0-37.637 16.787-37.637 37.637v27.296c-27.533 0-50.067 22.534-50.067 50.066 0 27.533 22.534 50.067 50.066 50.067v27.296c0 20.85 16.785 37.636 37.636 37.636h154.726c20.85 0 37.637-16.786 37.637-37.636V293.68c0-20.85-16.787-37.638-37.638-37.638H540.496zm143.078 26.205a15.937 15.937 0 0 1 15.937 15.938 15.937 15.937 0 0 1-15.227 15.912l-25.385 53.135a15.937 15.937 0 0 1 3.117 9.437 15.937 15.937 0 0 1-15.937 15.937 15.937 15.937 0 0 1-15.748-13.574l-32.85-12.786a15.937 15.937 0 0 1-9.472 5.553l-18.84 52.82a15.937 15.937 0 0 1 4.154 10.708 15.937 15.937 0 0 1-15.938 15.937 15.937 15.937 0 0 1-15.937-15.937 15.937 15.937 0 0 1 13.592-15.75l18.686-52.383a15.937 15.937 0 0 1-4.478-11.074 15.937 15.937 0 0 1 15.935-15.937 15.937 15.937 0 0 1 15.16 11.084l35.018 13.63a15.937 15.937 0 0 1 10.01-4.14l25.384-53.135a15.937 15.937 0 0 1-3.118-9.437 15.937 15.937 0 0 1 15.938-15.938zm-180.715 58.73c16.723 0 30.065 13.342 30.065 30.065 0 16.724-13.342 30.067-30.066 30.067-16.725 0-30.067-13.344-30.067-30.068 0-16.723 13.342-30.066 30.066-30.066z" fill="#008ccd" stroke="#fff" stroke-width="2"/><flowRoot transform="translate(299.48 88.905)" style="line-height:125%;-inkscape-font-specification:'Calibri Bold'" xml:space="preserve" font-style="normal" font-variant="normal" font-weight="700" font-stretch="normal" font-size="151.477" font-family="Calibri" letter-spacing="0" word-spacing="0" fill="#000" fill-opacity="1" stroke="none" stroke-width="1" stroke-linecap="butt" stroke-linejoin="miter" stroke-opacity="1"><flowRegion><path style="-inkscape-font-specification:'Calibri Bold'" d="M-6.804-51.163h1487.716V235.56H-6.804z"/></flowRegion><flowPara style="-inkscape-font-specification:'Modern No. 20, '" font-style="normal" font-variant="normal" font-weight="400" font-stretch="normal" font-family="Modern No. 20" letter-spacing="-.015" word-spacing="-.015" baseline-shift="baseline"/></flowRoot><g style="line-height:125%" font-weight="400" font-size="133.284" font-family="Mametosca 026" letter-spacing="-6.146" word-spacing="0" fill="url(#f)" stroke="#fff" stroke-width="2.314"><path style="-inkscape-font-specification:'Mametosca 026, '" d="M345.303 142.64c5.865 0 10.663-4.797 10.663-10.795 0-5.865-4.798-10.663-10.663-10.663h-40.785c-7.33 0-13.728 3.6-18.26 9.597-3.73 4.93-6.13 11.728-6.13 19.058s2.4 14.128 6.13 19.193a25.784 25.784 0 0 0 5.865 5.6c-1.066-2-1.733-4.266-1.733-6.798 0-6.93 5.065-12.796 11.863-13.862-.4-1.2-.667-2.532-.667-4.132 0-2.532.667-4.798 1.733-6.264.532-.533.932-.933 1.198-.933h40.785zm-54.38 50.515h40.785c.267 0 .667-.4 1.067-1.066 1.066-1.467 1.866-3.733 1.866-6.265 0-2.533-.8-4.798-1.865-6.264-.4-.666-.8-1.066-1.067-1.066h-27.19c-5.997 0-10.796-4.798-10.796-10.662 0-5.865 4.8-10.663 10.796-10.663h27.19c7.33 0 13.73 3.597 18.127 9.462 3.865 5.065 6.13 11.862 6.13 19.193 0 7.33-2.265 14.128-6.13 19.193-4.398 5.864-10.796 9.463-18.127 9.463h-40.785c-5.997 0-10.796-4.797-10.796-10.662 0-5.864 4.8-10.663 10.796-10.663zM381.873 167.832v-35.987c0-5.865-4.798-10.663-10.796-10.663-5.864 0-10.663 4.798-10.663 10.663V167.965c0 12.262 3.866 23.458 10.13 31.72 6.93 9.198 16.794 14.796 27.856 14.796h27.19c2.8 0 5.332-1.065 7.198-2.798-4-2.666-7.464-5.998-10.53-9.996-2-2.666-3.732-5.598-5.198-8.53H398.4c-3.998 0-7.863-2.4-10.796-6.265-3.598-4.797-5.73-11.46-5.73-19.058zm33.055 0v-35.987c0-5.865 4.665-10.663 10.662-10.663 5.865 0 10.663 4.798 10.663 10.663v35.987c0 7.597 2.266 14.26 5.865 19.06 2.932 3.864 6.664 6.263 10.662 6.263h16.528v-61.31c0-5.865 4.798-10.663 10.662-10.663 5.998 0 10.796 4.798 10.796 10.663v71.973c0 5.865-4.798 10.663-10.796 10.663h-27.19c-11.062 0-20.792-5.597-27.723-14.794-6.264-8.263-10.13-19.592-10.13-31.854zM496.543 177.028v26.79c0 5.865 4.8 10.663 10.663 10.663h54.513c5.864 0 10.662-4.797 10.662-10.662 0-5.998-4.798-10.796-10.663-10.796h-43.85V181.96h-10.664c-4.265 0-8.13-2-10.663-4.932zm65.176-34.387c5.864 0 10.662-4.797 10.662-10.795 0-5.865-4.798-10.663-10.663-10.663h-54.514c-5.864 0-10.663 4.798-10.663 10.663v35.987c0 5.864 4.8 10.662 10.663 10.662h54.513c5.864 0 10.662-4.798 10.662-10.662 0-5.865-4.798-10.663-10.663-10.663h-43.85v-14.53h43.85zM627.047 199.02l23.99-63.31a10.737 10.737 0 0 0-6.13-13.862c-5.598-2-11.73.8-13.86 6.265l-15.33 40.785c3.733 9.996 7.598 20.126 11.33 30.122zm-30.39-70.907c5.733 15.194 11.464 30.39 17.195 45.583 2.666 7.064 5.33 14.128 8.13 21.325 1.866 4.933 2.933 9.465 2.133 11.864-.933 3.065-3.2 5.73-6.53 6.93-5.466 2.133-11.597-.666-13.73-6.264-9.063-23.99-18.126-47.982-27.19-71.84-2.132-5.598.667-11.73 6.265-13.862 5.465-2 11.596.8 13.728 6.265zM719.92 157.17H677.8c.934-3.2 2.4-6 4.133-8.265 2.932-3.865 6.798-6.264 10.663-6.264 3.998 0 7.864 2.4 10.796 6.265 1.066 1.466 2.132 3.066 2.932 4.798h13.595c3.73 0 7.196 1.6 9.73 4-1.467-8.265-4.666-15.73-9.198-21.726-6.93-9.197-16.794-14.795-27.856-14.795-10.93 0-20.792 5.598-27.723 14.795-6.13 8.13-9.997 19.193-10.13 31.188 0 6.13 4.132 11.33 10.663 11.33h43.717v25.323c0 5.865 4.798 10.663 10.796 10.663 5.864 0 10.662-4.797 10.662-10.662v-35.986c0-5.865-4.798-10.663-10.663-10.663zm-43.85 46.648V181.96h-10.664c-4 0-7.997-1.866-10.663-4.932v26.79c0 5.865 4.798 10.663 10.663 10.663 5.998 0 10.663-4.797 10.663-10.662z"/></g></g></svg>